<?xml version="1.0" encoding="UTF-8" standalone="no"?>
<!DOCTYPE svg PUBLIC "-//W3C//DTD SVG 1.1//EN" "http://www.w3.org/Graphics/SVG/1.1/DTD/svg11.dtd">
<svg width="100%" height="100%" viewBox="0 0 1024 1024" version="1.1" xmlns="http://www.w3.org/2000/svg" xmlns:xlink="http://www.w3.org/1999/xlink" xml:space="preserve" xmlns:serif="http://www.serif.com/" style="fill-rule:evenodd;clip-rule:evenodd;">
    <circle cx="512" cy="512" r="480" style="fill:url(#_Linear1);"/>
    <circle cx="512" cy="512" r="460" style="fill:none;stroke:url(#_Linear2);stroke-width:6px;"/>
    <g opacity="0.07">
        <path d="M100,512L924,512" style="fill:none;fill-rule:nonzero;stroke:rgb(0,217,255);stroke-width:1px;"/>
        <path d="M512,100L512,924" style="fill:none;fill-rule:nonzero;stroke:rgb(0,217,255);stroke-width:1px;"/>
    </g>
    <g>
        <path d="M380,264L380,496C380,509.246 369.246,520 356,520L124,520C110.754,520 100,509.246 100,496L100,264C100,250.754 110.754,240 124,240L356,240C369.246,240 380,250.754 380,264Z" style="fill:rgb(26,26,46);stroke:rgb(0,217,255);stroke-width:4px;"/>
        <g transform="matrix(1,0,0,1,240,220)">
            <text x="-14.443px" y="0px" style="font-family:'Arial-BoldMT', 'Arial', sans-serif;font-weight:700;font-size:40px;fill:rgb(0,217,255);">A</text>
        </g>
        <g opacity="0.3">
            <path d="M193,260L193,500" style="fill:none;fill-rule:nonzero;stroke:rgb(0,217,255);stroke-width:1.5px;"/>
            <path d="M240,260L240,500" style="fill:none;fill-rule:nonzero;stroke:rgb(0,217,255);stroke-width:1.5px;"/>
            <path d="M287,260L287,500" style="fill:none;fill-rule:nonzero;stroke:rgb(0,217,255);stroke-width:1.5px;"/>
            <path d="M120,333L360,333" style="fill:none;fill-rule:nonzero;stroke:rgb(0,217,255);stroke-width:1.5px;"/>
            <path d="M120,380L360,380" style="fill:none;fill-rule:nonzero;stroke:rgb(0,217,255);stroke-width:1.5px;"/>
            <path d="M120,427L360,427" style="fill:none;fill-rule:nonzero;stroke:rgb(0,217,255);stroke-width:1.5px;"/>
        </g>
        <circle cx="193" cy="333" r="14" style="fill:rgb(0,255,136);"/>
        <circle cx="240" cy="380" r="14" style="fill:rgb(255,217,61);"/>
        <circle cx="287" cy="427" r="14" style="fill:rgb(0,217,255);"/>
    </g>
    <g>
        <path d="M100,311L100,331C100,334.311 97.311,337 94,337L56,337C52.689,337 50,334.311 50,331L50,311C50,307.689 52.689,305 56,305L94,305C97.311,305 100,307.689 100,311Z" style="fill:rgb(26,26,46);stroke:rgb(0,217,255);stroke-width:2.5px;"/>
        <circle cx="75" cy="321" r="8" style="fill:rgb(0,255,136);"/>
        <path d="M100,371L100,391C100,394.311 97.311,397 94,397L56,397C52.689,397 50,394.311 50,391L50,371C50,367.689 52.689,365 56,365L94,365C97.311,365 100,367.689 100,371Z" style="fill:rgb(26,26,46);stroke:rgb(0,217,255);stroke-width:2.5px;"/>
        <circle cx="75" cy="381" r="8" style="fill:rgb(255,217,61);"/>
        <path d="M100,431L100,451C100,454.311 97.311,457 94,457L56,457C52.689,457 50,454.311 50,451L50,431C50,427.689 52.689,425 56,425L94,425C97.311,425 100,427.689 100,431Z" style="fill:rgb(26,26,46);stroke:rgb(0,217,255);stroke-width:2.5px;"/>
        <circle cx="75" cy="441" r="8" style="fill:rgb(0,217,255);"/>
    </g>
    <g>
        <path d="M430,311L430,331C430,334.311 427.311,337 424,337L386,337C382.689,337 380,334.311 380,331L380,311C380,307.689 382.689,305 386,305L424,305C427.311,305 430,307.689 430,311Z" style="fill:rgb(26,26,46);stroke:rgb(0,255,136);stroke-width:2.5px;"/>
        <circle cx="405" cy="321" r="8" style="fill:rgb(0,255,136);"/>
        <path d="M430,371L430,391C430,394.311 427.311,397 424,397L386,397C382.689,397 380,394.311 380,391L380,371C380,367.689 382.689,365 386,365L424,365C427.311,365 430,367.689 430,371Z" style="fill:rgb(26,26,46);stroke:rgb(0,255,136);stroke-width:2.5px;"/>
        <circle cx="405" cy="381" r="8" style="fill:rgb(255,217,61);"/>
        <path d="M430,431L430,451C430,454.311 427.311,457 424,457L386,457C382.689,457 380,454.311 380,451L380,431C380,427.689 382.689,425 386,425L424,425C427.311,425 430,427.689 430,431Z" style="fill:rgb(42,26,30);stroke:url(#_Linear3);stroke-width:3px;"/>
        <circle cx="405" cy="441" r="8" style="fill:rgb(255,107,107);"/>
    </g>
    <g>
        <path d="M924,264L924,496C924,509.246 913.246,520 900,520L668,520C654.754,520 644,509.246 644,496L644,264C644,250.754 654.754,240 668,240L900,240C913.246,240 924,250.754 924,264Z" style="fill:rgb(26,26,46);stroke:rgb(0,255,136);stroke-width:4px;"/>
        <g transform="matrix(1,0,0,1,784,220)">
            <text x="-14.443px" y="0px" style="font-family:'Arial-BoldMT', 'Arial', sans-serif;font-weight:700;font-size:40px;fill:rgb(0,255,136);">B</text>
        </g>
        <g opacity="0.3">
            <path d="M737,260L737,500" style="fill:none;fill-rule:nonzero;stroke:rgb(0,255,136);stroke-width:1.5px;"/>
            <path d="M784,260L784,500" style="fill:none;fill-rule:nonzero;stroke:rgb(0,255,136);stroke-width:1.5px;"/>
            <path d="M831,260L831,500" style="fill:none;fill-rule:nonzero;stroke:rgb(0,255,136);stroke-width:1.5px;"/>
            <path d="M664,333L904,333" style="fill:none;fill-rule:nonzero;stroke:rgb(0,255,136);stroke-width:1.5px;"/>
            <path d="M664,380L904,380" style="fill:none;fill-rule:nonzero;stroke:rgb(0,255,136);stroke-width:1.5px;"/>
            <path d="M664,427L904,427" style="fill:none;fill-rule:nonzero;stroke:rgb(0,255,136);stroke-width:1.5px;"/>
        </g>
        <circle cx="737" cy="333" r="14" style="fill:rgb(255,107,107);"/>
        <circle cx="784" cy="380" r="14" style="fill:rgb(197,108,240);"/>
        <circle cx="831" cy="427" r="14" style="fill:rgb(0,255,136);"/>
    </g>
    <g>
        <path d="M644,311L644,331C644,334.311 641.311,337 638,337L600,337C596.689,337 594,334.311 594,331L594,311C594,307.689 596.689,305 600,305L638,305C641.311,305 644,307.689 644,311Z" style="fill:rgb(42,26,30);stroke:url(#_Linear4);stroke-width:3px;"/>
        <circle cx="619" cy="321" r="8" style="fill:rgb(255,107,107);"/>
        <path d="M644,371L644,391C644,394.311 641.311,397 638,397L600,397C596.689,397 594,394.311 594,391L594,371C594,367.689 596.689,365 600,365L638,365C641.311,365 644,367.689 644,371Z" style="fill:rgb(26,26,46);stroke:rgb(0,217,255);stroke-width:2.5px;"/>
        <circle cx="619" cy="381" r="8" style="fill:rgb(197,108,240);"/>
        <path d="M644,431L644,451C644,454.311 641.311,457 638,457L600,457C596.689,457 594,454.311 594,451L594,431C594,427.689 596.689,425 600,425L638,425C641.311,425 644,427.689 644,431Z" style="fill:rgb(26,26,46);stroke:rgb(0,217,255);stroke-width:2.5px;"/>
        <circle cx="619" cy="441" r="8" style="fill:rgb(0,255,136);"/>
    </g>
    <g>
        <path d="M974,311L974,331C974,334.311 971.311,337 968,337L930,337C926.689,337 924,334.311 924,331L924,311C924,307.689 926.689,305 930,305L968,305C971.311,305 974,307.689 974,311Z" style="fill:rgb(26,26,46);stroke:rgb(0,255,136);stroke-width:2.5px;"/>
        <circle cx="949" cy="321" r="8" style="fill:rgb(255,107,107);"/>
        <path d="M974,371L974,391C974,394.311 971.311,397 968,397L930,397C926.689,397 924,394.311 924,391L924,371C924,367.689 926.689,365 930,365L968,365C971.311,365 974,367.689 974,371Z" style="fill:rgb(26,26,46);stroke:rgb(0,255,136);stroke-width:2.5px;"/>
        <circle cx="949" cy="381" r="8" style="fill:rgb(197,108,240);"/>
        <path d="M974,431L974,451C974,454.311 971.311,457 968,457L930,457C926.689,457 924,454.311 924,451L924,431C924,427.689 926.689,425 930,425L968,425C971.311,425 974,427.689 974,431Z" style="fill:rgb(26,26,46);stroke:rgb(0,255,136);stroke-width:2.5px;"/>
        <circle cx="949" cy="441" r="8" style="fill:rgb(0,255,136);"/>
    </g>
    <g>
        <path d="M430,441C490,441 530,321 594,321" style="fill:none;fill-rule:nonzero;stroke:url(#_Linear5);stroke-width:5px;stroke-dasharray:10,5;"/>
    </g>
    <g opacity="0.9">
        <path d="M520,365L530,358L530,372L520,365Z" style="fill:rgb(255,217,61);fill-rule:nonzero;"/>
    </g>
    <g>
        <path d="M100,321C120,321 151,325 193,333" style="fill:none;fill-rule:nonzero;stroke:rgb(0,255,136);stroke-opacity:0.6;stroke-width:3px;stroke-dasharray:6,3;"/>
        <path d="M100,381C133.333,381 180,380.667 240,380" style="fill:none;fill-rule:nonzero;stroke:rgb(255,217,61);stroke-opacity:0.6;stroke-width:3px;stroke-dasharray:6,3;"/>
        <path d="M287,427C315.667,429 346.667,433.667 380,441" style="fill:none;fill-rule:nonzero;stroke:rgb(0,217,255);stroke-opacity:0.6;stroke-width:3px;stroke-dasharray:6,3;"/>
    </g>
    <g>
        <path d="M737,333C712.333,331 681.333,327 644,321" style="fill:none;fill-rule:nonzero;stroke:rgb(255,107,107);stroke-opacity:0.6;stroke-width:3px;stroke-dasharray:6,3;"/>
        <path d="M831,427C857,429 888,433.667 924,441" style="fill:none;fill-rule:nonzero;stroke:rgb(0,255,136);stroke-opacity:0.6;stroke-width:3px;stroke-dasharray:6,3;"/>
    </g>
    <g transform="matrix(2.27113,0,0,2.27113,-650.818,-785.807)">
        <path d="M612,613.209L612,646.791C612,654.081 606.081,660 598.791,660L425.209,660C417.919,660 412,654.081 412,646.791L412,613.209C412,605.919 417.919,600 425.209,600L598.791,600C606.081,600 612,605.919 612,613.209Z" style="fill:rgb(26,26,46);stroke:url(#_Linear6);stroke-width:3px;"/>
        <g transform="matrix(1,0,0,1,512,642)">
            <text x="-28.002px" y="0px" style="font-family:'Arial-BoldMT', 'Arial', sans-serif;font-weight:700;font-size:36px;fill:url(#_Linear7);">TIE</text>
        </g>
    </g>
    <g transform="matrix(3.25719,0,0,3.25719,509.831,837.688)">
        <text x="-83.128px" y="0px" style="font-family:'ArialMT', 'Arial', sans-serif;font-size:22px;fill:rgb(0,217,255);">LINE MANAGER</text>
    </g>
    <g opacity="0.6">
        <path d="M100,200L100,100L200,100" style="fill:none;fill-rule:nonzero;stroke:url(#_Linear8);stroke-width:3px;"/>
        <path d="M924,200L924,100L824,100" style="fill:none;fill-rule:nonzero;stroke:url(#_Linear9);stroke-width:3px;"/>
        <path d="M100,824L100,924L200,924" style="fill:none;fill-rule:nonzero;stroke:url(#_Linear10);stroke-width:3px;"/>
        <path d="M924,824L924,924L824,924" style="fill:none;fill-rule:nonzero;stroke:url(#_Linear11);stroke-width:3px;"/>
    </g>
    <defs>
        <linearGradient id="_Linear1" x1="0" y1="0" x2="1" y2="0" gradientUnits="userSpaceOnUse" gradientTransform="matrix(960,960,-960,960,32,32)"><stop offset="0" style="stop-color:rgb(26,26,46);stop-opacity:1"/><stop offset="0.5" style="stop-color:rgb(22,33,62);stop-opacity:1"/><stop offset="1" style="stop-color:rgb(15,52,96);stop-opacity:1"/></linearGradient>
        <linearGradient id="_Linear2" x1="0" y1="0" x2="1" y2="0" gradientUnits="userSpaceOnUse" gradientTransform="matrix(920,0,0,920,52,52)"><stop offset="0" style="stop-color:rgb(0,217,255);stop-opacity:0.5"/><stop offset="0.5" style="stop-color:rgb(0,255,136);stop-opacity:0.5"/><stop offset="1" style="stop-color:rgb(0,217,255);stop-opacity:0.5"/></linearGradient>
        <linearGradient id="_Linear3" x1="0" y1="0" x2="1" y2="0" gradientUnits="userSpaceOnUse" gradientTransform="matrix(50,0,0,50,380,425)"><stop offset="0" style="stop-color:rgb(255,107,107);stop-opacity:1"/><stop offset="0.5" style="stop-color:rgb(255,217,61);stop-opacity:1"/><stop offset="1" style="stop-color:rgb(255,107,107);stop-opacity:1"/></linearGradient>
        <linearGradient id="_Linear4" x1="0" y1="0" x2="1" y2="0" gradientUnits="userSpaceOnUse" gradientTransform="matrix(50,0,0,50,594,305)"><stop offset="0" style="stop-color:rgb(255,107,107);stop-opacity:1"/><stop offset="0.5" style="stop-color:rgb(255,217,61);stop-opacity:1"/><stop offset="1" style="stop-color:rgb(255,107,107);stop-opacity:1"/></linearGradient>
        <linearGradient id="_Linear5" x1="0" y1="0" x2="1" y2="0" gradientUnits="userSpaceOnUse" gradientTransform="matrix(164,0,0,164,430,321)"><stop offset="0" style="stop-color:rgb(255,107,107);stop-opacity:1"/><stop offset="0.5" style="stop-color:rgb(255,217,61);stop-opacity:1"/><stop offset="1" style="stop-color:rgb(255,107,107);stop-opacity:1"/></linearGradient>
        <linearGradient id="_Linear6" x1="0" y1="0" x2="1" y2="0" gradientUnits="userSpaceOnUse" gradientTransform="matrix(200,0,0,200,412,600)"><stop offset="0" style="stop-color:rgb(255,107,107);stop-opacity:1"/><stop offset="0.5" style="stop-color:rgb(255,217,61);stop-opacity:1"/><stop offset="1" style="stop-color:rgb(255,107,107);stop-opacity:1"/></linearGradient>
        <linearGradient id="_Linear7" x1="0" y1="0" x2="1" y2="0" gradientUnits="userSpaceOnUse" gradientTransform="matrix(56.0039,0,0,56.0039,-28.002,-25.7695)"><stop offset="0" style="stop-color:rgb(255,107,107);stop-opacity:1"/><stop offset="0.5" style="stop-color:rgb(255,217,61);stop-opacity:1"/><stop offset="1" style="stop-color:rgb(255,107,107);stop-opacity:1"/></linearGradient>
        <linearGradient id="_Linear8" x1="0" y1="0" x2="1" y2="0" gradientUnits="userSpaceOnUse" gradientTransform="matrix(100,0,0,100,100,100)"><stop offset="0" style="stop-color:rgb(0,217,255);stop-opacity:1"/><stop offset="0.5" style="stop-color:rgb(0,255,136);stop-opacity:1"/><stop offset="1" style="stop-color:rgb(0,217,255);stop-opacity:1"/></linearGradient>
        <linearGradient id="_Linear9" x1="0" y1="0" x2="1" y2="0" gradientUnits="userSpaceOnUse" gradientTransform="matrix(100,0,0,100,824,100)"><stop offset="0" style="stop-color:rgb(0,217,255);stop-opacity:1"/><stop offset="0.5" style="stop-color:rgb(0,255,136);stop-opacity:1"/><stop offset="1" style="stop-color:rgb(0,217,255);stop-opacity:1"/></linearGradient>
        <linearGradient id="_Linear10" x1="0" y1="0" x2="1" y2="0" gradientUnits="userSpaceOnUse" gradientTransform="matrix(100,0,0,100,100,824)"><stop offset="0" style="stop-color:rgb(0,217,255);stop-opacity:1"/><stop offset="0.5" style="stop-color:rgb(0,255,136);stop-opacity:1"/><stop offset="1" style="stop-color:rgb(0,217,255);stop-opacity:1"/></linearGradient>
        <linearGradient id="_Linear11" x1="0" y1="0" x2="1" y2="0" gradientUnits="userSpaceOnUse" gradientTransform="matrix(100,0,0,100,824,824)"><stop offset="0" style="stop-color:rgb(0,217,255);stop-opacity:1"/><stop offset="0.5" style="stop-color:rgb(0,255,136);stop-opacity:1"/><stop offset="1" style="stop-color:rgb(0,217,255);stop-opacity:1"/></linearGradient>
    </defs>
</svg>
